<svg width="256" height="256" viewBox="0 0 256 256" fill="none" xmlns="http://www.w3.org/2000/svg">
  <defs>
    <linearGradient id="shell" x1="54" y1="48" x2="202" y2="208" gradientUnits="userSpaceOnUse">
      <stop stop-color="#FF9F1C"/>
      <stop offset="1" stop-color="#E55934"/>
    </linearGradient>
    <linearGradient id="claw" x1="34" y1="54" x2="104" y2="116" gradientUnits="userSpaceOnUse">
      <stop stop-color="#FFB84D"/>
      <stop offset="1" stop-color="#FF6B35"/>
    </linearGradient>
    <linearGradient id="clawRight" x1="222" y1="54" x2="152" y2="116" gradientUnits="userSpaceOnUse">
      <stop stop-color="#FFB84D"/>
      <stop offset="1" stop-color="#FF6B35"/>
    </linearGradient>
  </defs>
  <rect width="256" height="256" rx="64" fill="#000000"/>
  <ellipse cx="128" cy="142" rx="64" ry="54" fill="url(#shell)"/>
  <path d="M80 86C65 60 41 52 22 58C24 83 42 104 70 111" fill="url(#claw)"/>
  <path d="M176 86C191 60 215 52 234 58C232 83 214 104 186 111" fill="url(#clawRight)"/>
  <path d="M82 79C61 52 34 45 14 53C18 82 40 106 74 114" stroke="#FFCF70" stroke-width="10" stroke-linecap="round" stroke-linejoin="round"/>
  <path d="M174 79C195 52 222 45 242 53C238 82 216 106 182 114" stroke="#FFCF70" stroke-width="10" stroke-linecap="round" stroke-linejoin="round"/>
  <path d="M86 156L54 194" stroke="#FFB84D" stroke-width="11" stroke-linecap="round"/>
  <path d="M108 169L86 212" stroke="#FFB84D" stroke-width="11" stroke-linecap="round"/>
  <path d="M170 156L202 194" stroke="#FFB84D" stroke-width="11" stroke-linecap="round"/>
  <path d="M148 169L170 212" stroke="#FFB84D" stroke-width="11" stroke-linecap="round"/>
  <path d="M96 99L82 80" stroke="#1B0A03" stroke-width="12" stroke-linecap="round"/>
  <path d="M160 99L174 80" stroke="#1B0A03" stroke-width="12" stroke-linecap="round"/>
  <circle cx="103" cy="121" r="8" fill="#1B0A03"/>
  <circle cx="153" cy="121" r="8" fill="#1B0A03"/>
  <path d="M104 156C117 166 139 166 152 156" stroke="#1B0A03" stroke-width="8" stroke-linecap="round"/>
</svg>
